<?xml version="1.0" encoding="UTF-8"?>
<svg xmlns="http://www.w3.org/2000/svg" xmlns:xlink="http://www.w3.org/1999/xlink" width="104px" height="42px" viewBox="0 0 104 42">
  <!-- Generator: Sketch 52.4 (67378) - http://www.bohemiancoding.com/sketch -->
  <title>ibm</title>
  <desc>Created with Sketch.</desc>
  <defs>
    <polygon id="path-1" points="0 42 103.039 42 103.039 0.399 0 0.399"></polygon>
  </defs>
  <g id="Visual-Design" stroke="none" stroke-width="1" fill="none" fill-rule="evenodd">
    <g id="Partners-&amp;-Services" transform="translate(-780.000000, -1634.000000)">
      <g id="ibm" transform="translate(780.000000, 1633.000000)">
        <polygon id="Fill-1" fill="#4C82C2" points="86.9445 1.002 85.8875 3.959 103.0395 3.959 103.0395 1.002"></polygon>
        <g id="Group-41" transform="translate(0.000000, 0.600900)">
          <path d="M57.3159,0.4005 L73.2399,0.3995 L74.2839,3.3635 C74.2919,3.3585 57.3209,3.3675 57.3209,3.3635 C57.3209,3.3585 57.3119,0.4005 57.3159,0.4005" id="Fill-2" fill="#4C82C2"></path>
          <path d="M44.6689,0.4005 C47.2939,0.6535 49.5749,1.5885 51.5189,3.3625 C51.5189,3.3625 22.6539,3.3655 22.6539,3.3625 L22.6539,0.3995 L44.6689,0.4005 Z" id="Fill-4" fill="#4C82C2"></path>
          <mask id="mask-2" fill="white">
            <use xlink:href="#path-1"></use>
          </mask>
          <g id="Clip-7"></g>
          <polygon id="Fill-6" fill="#4C82C2" mask="url(#mask-2)" points="0.003 3.357 20.055 3.357 20.055 0.4 0.003 0.4"></polygon>
          <path d="M103.039,8.9068 L83.921,8.9068 C83.921,8.9068 84.964,5.9658 84.958,5.9648 L103.039,5.9648 L103.039,8.9068 Z" id="Fill-8" fill="#4C82C2" mask="url(#mask-2)"></path>
          <polygon id="Fill-9" fill="#4C82C2" mask="url(#mask-2)" points="76.2539 8.9107 57.3149 8.9107 57.3149 5.9637 75.2169 5.9637"></polygon>
          <path d="M53.7666,5.963 C54.1476,6.935 54.5976,7.765 54.5976,8.906 L22.6596,8.906 L22.6596,5.963 L53.7666,5.963 Z" id="Fill-10" fill="#4C82C2" mask="url(#mask-2)"></path>
          <polygon id="Fill-11" fill="#4C82C2" mask="url(#mask-2)" points="0.003 8.906 20.055 8.906 20.055 5.963 0.003 5.963"></polygon>
          <polygon id="Fill-12" fill="#4C82C2" mask="url(#mask-2)" points="81.9668 14.4688 83.0168 11.5128 97.3698 11.5168 97.3698 14.4628"></polygon>
          <polygon id="Fill-13" fill="#4C82C2" mask="url(#mask-2)" points="77.1748 11.5118 78.2198 14.4688 62.9618 14.4688 62.9618 11.5118"></polygon>
          <path d="M54.8505,11.5108 C54.8505,12.5258 54.7235,13.5818 54.4285,14.4688 L45.6835,14.4688 L45.6835,11.5108 L54.8505,11.5108 Z" id="Fill-14" fill="#4C82C2" mask="url(#mask-2)"></path>
          <polygon id="Fill-15" fill="#4C82C2" mask="url(#mask-2)" points="5.592 14.468 14.211 14.468 14.211 11.525 5.592 11.525"></polygon>
          <polygon id="Fill-16" fill="#4C82C2" mask="url(#mask-2)" points="28.461 14.469 37.065 14.469 37.065 11.511 28.461 11.511"></polygon>
          <path d="M71.437,17.6622 C71.437,17.6622 71.44,19.9002 71.438,19.9052 L62.962,19.9052 L62.962,16.9611902 L79.115,16.9612 L80.117,19.7052 C80.122,19.7072 81.084,16.9552 81.086,16.9612 L97.365,16.9611902 L97.365,19.9052 L88.93,19.9052 C88.93,19.9002 88.925,17.6622 88.925,17.6622 L88.145,19.9052 L72.216,19.9002 L71.437,17.6622 Z" id="Fill-17" fill="#4C82C2" mask="url(#mask-2)"></path>
          <path d="M28.4614,16.9615 L53.1604,16.9615 L53.1604,16.9595 C52.6204,17.9455 51.6404,19.1445 50.7104,19.9045 C50.7104,19.9045 28.4604,19.9085 28.4604,19.9045 C28.4604,19.9005 28.4614,16.9655 28.4614,16.9615" id="Fill-18" fill="#4C82C2" mask="url(#mask-2)"></path>
          <polygon id="Fill-19" fill="#4C82C2" mask="url(#mask-2)" points="5.592 19.904 14.211 19.904 14.211 16.961 5.592 16.961"></polygon>
          <polygon id="Fill-20" fill="#4C82C2" mask="url(#mask-2)" points="88.93 25.452 97.365 25.452 97.365 22.51 88.93 22.51"></polygon>
          <path d="M71.437,22.5103 L62.9619986,22.5103 L62.962,25.4523 C62.958,25.4513 71.44,25.4543 71.44,25.4523 C71.44,25.4513 71.449,22.5103 71.437,22.5103" id="Fill-21" fill="#4C82C2" mask="url(#mask-2)"></path>
          <path d="M87.2265,22.5102936 C87.1875,22.5053 86.2395,25.4513 86.1995,25.4523 L74.1845,25.4583 C74.1755,25.4533 73.1285,22.5053 73.1275,22.5102936 L87.2265,22.5102936 Z" id="Fill-22" fill="#4C82C2" mask="url(#mask-2)"></path>
          <path d="M28.4594,22.5094 L50.6674,22.5094 C51.6814,23.3554 52.5984,24.3964 53.3154,25.4524 C53.3554,25.4514 28.4604,25.4544 28.4604,25.4524 C28.4604,25.4514 28.4594,22.5114 28.4594,22.5094" id="Fill-23" fill="#4C82C2" mask="url(#mask-2)"></path>
          <path d="M14.2094,25.4527 L14.2094,22.5097 L5.6054,22.5097 C5.6054,22.5097 5.6074,25.4517 5.6054,25.4517 C5.6044,25.4517 14.2054,25.4527 14.2094,25.4527" id="Fill-24" fill="#4C82C2" mask="url(#mask-2)"></path>
          <polygon id="Fill-25" fill="#4C82C2" mask="url(#mask-2)" points="88.93 31.002 97.363 31.002 97.363 28.059 88.93 28.059"></polygon>
          <polygon id="Fill-26" fill="#4C82C2" mask="url(#mask-2)" points="62.962 31.001 71.437 31.001 71.437 28.059 62.962 28.059"></polygon>
          <path d="M84.2265,31.0167 C84.2285,31.0027 85.2665,28.0557 85.2825,28.0586977 L75.0695,28.0587 C75.0515,28.0567 76.1165,31.0027 76.1165,31.0027 C76.1165,31.0027 84.2245,31.0287 84.2265,31.0167" id="Fill-27" fill="#4C82C2" mask="url(#mask-2)"></path>
          <path d="M28.4604,31.0015 C28.4604,31.0135 28.4594,28.0595 28.4604,28.0585 L37.1924,28.0585 C37.1924,28.0585 37.1994,31.0025 37.1924,31.0025 C37.1844,31.0025 28.4604,30.9985 28.4604,31.0015" id="Fill-28" fill="#4C82C2" mask="url(#mask-2)"></path>
          <path d="M54.5405,28.0582 C54.9625,28.9452 55.0055,30.0012 55.0895,31.0152 L45.8375,31.0152 L45.8375,28.0582 L54.5405,28.0582 Z" id="Fill-29" fill="#4C82C2" mask="url(#mask-2)"></path>
          <polygon id="Fill-30" fill="#4C82C2" mask="url(#mask-2)" points="5.605 31 14.209 31 14.209 28.058 5.605 28.058"></polygon>
          <polygon id="Fill-31" fill="#4C82C2" mask="url(#mask-2)" points="88.93 36.438 103.037 36.438 103.037 33.493 88.93 33.493"></polygon>
          <polygon id="Fill-32" fill="#4C82C2" mask="url(#mask-2)" points="57.315 36.438 71.437 36.438 71.437 33.493 57.315 33.493"></polygon>
          <polygon id="Fill-33" fill="#4C82C2" mask="url(#mask-2)" points="82.3286 36.4376 78.0206 36.4376 76.9866 33.4926 83.3246 33.4926"></polygon>
          <path d="M0.00138024678,33.4928 L0.00138024678,36.4368041 L20.0404,36.4368 C20.0484,36.4408 20.0304,33.4948 20.0404,33.4948 C20.0484,33.4948 -0.0216,33.4928 0.00138024678,33.4928" id="Fill-34" fill="#4C82C2" mask="url(#mask-2)"></path>
          <path d="M54.7231,33.4928 C54.5121,34.4648 54.3191,35.6478 53.6091,36.4378 L53.3451,36.4368 L22.6581,36.4368 L22.6581,33.4928 L54.7231,33.4928 Z" id="Fill-35" fill="#4C82C2" mask="url(#mask-2)"></path>
          <polygon id="Fill-36" fill="#4C82C2" mask="url(#mask-2)" points="80.3759 41.9928 79.9799 41.9928 78.9729 39.0428 81.4099 39.0428"></polygon>
          <polygon id="Fill-37" fill="#4C82C2" mask="url(#mask-2)" points="88.93 42 103.037 42 103.037 39.043 88.93 39.043"></polygon>
          <path d="M22.6538,41.9928 L22.6538,39.0468 C22.6538,39.0468 51.6048,39.0508 51.6878,39.0508 C49.7448,40.9098 47.0778,41.9588 44.2058,41.9988 L22.6578,41.9928" id="Fill-38" fill="#4C82C2" mask="url(#mask-2)"></path>
          <polygon id="Fill-39" fill="#4C82C2" mask="url(#mask-2)" points="57.315 42 71.437 42 71.437 39.043 57.315 39.043"></polygon>
          <path d="M20.04,39.0557 C20.04,39.0557 20.031,41.9927 20.04,41.9927 C20.049,41.9927 0.007,42.0047 0.001,41.9977 C-0.004,41.9927 0.007,39.0467 0.001,39.0467 C-0.004,39.0467 20.031,39.0647 20.04,39.0557" id="Fill-40" fill="#4C82C2" mask="url(#mask-2)"></path>
        </g>
      </g>
    </g>
  </g>
</svg>
