<?xml version="1.0" encoding="UTF-8"?>
<svg xmlns="http://www.w3.org/2000/svg" xmlns:xlink="http://www.w3.org/1999/xlink" width="129px" height="52px" viewBox="0 0 129 52">
  <!-- Generator: Sketch 52.4 (67378) - http://www.bohemiancoding.com/sketch -->
  <title>kpmg</title>
  <desc>Created with Sketch.</desc>
  <defs>
    <polygon id="path-1" points="0 0.0002 128.558 0.0002 128.558 51.635 0 51.635"></polygon>
  </defs>
  <g id="Visual-Design" stroke="none" stroke-width="1" fill="none" fill-rule="evenodd">
    <g id="Partners-&amp;-Services" transform="translate(-972.000000, -1623.000000)">
      <g id="kpmg" transform="translate(972.000000, 1623.000000)">
        <mask id="mask-2" fill="white">
          <use xlink:href="#path-1"></use>
        </mask>
        <g id="Clip-2"></g>
        <path d="M100.0179,0.0002 L100.0179,25.7662 C99.1179,26.4762 98.3529,27.2372 97.6399,28.0582 L97.6399,0.0002 L69.0989,0.0002 L69.0989,23.4612 L66.7349,23.4612 L66.7349,0.0002 L38.1889,0.0002 L38.1889,23.4982 L35.8279,23.4982 L35.8279,0.0002 L7.2819,0.0002 L7.2819,26.7832 L-0.0001,51.0662 L6.4049,51.0662 L9.6219,40.3122 L10.5479,40.3122 L15.8599,51.0662 L23.5999,51.0662 L18.4449,40.3122 L30.1419,40.3122 L26.8959,51.0662 L33.8959,51.0662 L37.0979,40.3422 L38.6349,40.3422 L38.6349,40.3122 L40.8359,40.3122 L41.0109,40.3122 L54.2189,40.3122 L51.1279,51.0342 L58.1849,51.0342 L61.1799,40.3122 L64.3559,40.3122 L64.4409,51.0342 L70.3619,51.0342 L77.1559,40.3122 L81.6059,40.3122 L79.3109,51.0342 L86.2599,51.0342 L88.5129,40.3122 L92.5319,40.3122 C92.3719,43.6352 93.2219,46.6542 95.4269,48.6882 C98.1189,51.1622 102.2529,51.6352 105.3139,51.6352 C109.4999,51.6352 113.8469,51.0342 118.2199,50.0482 L120.6269,40.3122 L128.5589,40.3122 L128.5589,0.0002 L100.0179,0.0002 Z M34.7999,24.8662 L34.3839,26.2422 L30.5909,38.8632 L30.4409,39.3072 L17.9579,39.3072 L16.9839,37.2512 L30.4409,23.4982 L21.7949,23.4982 L11.2719,34.8342 L14.6809,23.4982 L8.3049,23.4982 L8.3049,1.0182 L34.7999,1.0182 L34.7999,24.8662 Z M42.1689,35.5382 L42.1609,35.5382 C41.9039,35.5522 41.6449,35.5742 41.3499,35.5742 C40.9629,35.5742 40.6609,35.5882 40.3749,35.5882 L38.6779,35.5742 L39.4629,32.6732 L39.8339,31.2322 L40.7249,27.8582 C41.1189,27.8582 41.5049,27.8442 41.8749,27.8442 L43.1879,27.8442 C45.4309,27.8442 46.8499,27.9722 47.3649,28.6922 C47.7609,29.2332 47.7099,30.1702 47.2429,31.5932 C46.4429,34.0452 45.4309,35.2892 42.1689,35.5382 Z M61.4649,39.3072 L64.2579,29.3952 L64.3559,39.3072 L61.4649,39.3072 Z M65.7089,23.4612 L59.0729,23.4612 L54.5209,39.3072 L47.4849,39.3072 C51.0699,37.9802 53.2519,35.4482 53.9269,31.6892 C54.4829,28.7702 54.2189,26.8482 53.0279,25.4092 C51.2429,23.2682 47.6609,23.4512 44.4779,23.4512 C43.9219,23.4512 39.2149,23.4612 39.2149,23.4612 L39.2149,1.0182 L65.7089,1.0182 L65.7089,23.4612 Z M81.8069,39.3072 L77.8179,39.3072 L83.8559,29.8082 L81.8069,39.3072 Z M96.6129,23.9062 L96.5999,29.3952 C94.7509,31.9492 93.6029,34.7382 93.0659,36.9852 C92.8629,37.7712 92.7209,38.5352 92.6429,39.3072 L88.7469,39.3072 L92.0789,23.4982 L80.8659,23.4872 L70.8309,39.3072 L70.0999,39.3072 L70.0999,1.0182 L96.6129,1.0182 L96.6129,23.9062 Z M111.8989,45.7782 C110.3849,46.0522 108.8749,46.2342 107.4379,46.2342 C103.6139,46.2342 100.9549,44.4572 100.8989,40.3122 L113.2539,40.3122 L111.8989,45.7782 Z M127.5509,39.3072 L120.8719,39.3072 L121.9749,34.8902 L108.5919,34.8902 L107.4919,39.3072 L101.0239,39.3072 L101.0239,38.3992 C101.1239,37.9012 101.2099,37.3802 101.3349,36.8222 C102.5119,32.0592 105.6389,27.3532 111.0479,27.3532 C113.1879,27.3532 115.3149,28.1682 115.0239,31.1292 L122.9859,31.1292 C123.2999,29.7472 123.8269,27.3942 122.3249,25.2302 C120.6269,22.8802 117.2089,21.9372 112.7749,21.9372 C109.6209,21.9372 105.0089,22.4412 101.0239,25.0422 L101.0239,1.0182 L127.5509,1.0182 L127.5509,39.3072 Z" id="Fill-1" fill="#253D85" mask="url(#mask-2)"></path>
      </g>
    </g>
  </g>
</svg>
